<?xml version="1.0" standalone="no"?>
<!DOCTYPE svg PUBLIC "-//W3C//DTD SVG 20010904//EN"
 "http://www.w3.org/TR/2001/REC-SVG-20010904/DTD/svg10.dtd">
<svg version="1.0" xmlns="http://www.w3.org/2000/svg"
 width="636.000000pt" height="633.000000pt" viewBox="0 0 636.000000 633.000000"
 preserveAspectRatio="xMidYMid meet">

<g transform="translate(0.000000,633.000000) scale(0.100000,-0.100000)"
fill="#000000" stroke="none">
<path d="M0 3165 l0 -3165 3180 0 3180 0 0 3165 0 3165 -3180 0 -3180 0 0
-3165z m3290 2435 c504 -46 935 -214 1335 -519 114 -88 314 -282 402 -391 297
-369 482 -808 543 -1290 16 -123 16 -437 1 -565 -40 -332 -150 -670 -304 -940
-322 -562 -816 -961 -1433 -1158 -218 -69 -527 -119 -744 -119 -133 0 -378 29
-537 63 -897 194 -1627 887 -1871 1774 -156 567 -108 1160 138 1696 252 552
712 1005 1269 1249 370 162 808 235 1201 200z"/>
<path d="M2850 5454 c-308 -39 -558 -113 -815 -241 -374 -187 -720 -500 -934
-844 -194 -312 -309 -643 -352 -1009 -17 -147 -6 -492 20 -630 98 -529 320
-948 693 -1305 451 -432 1005 -655 1628 -655 474 0 896 127 1295 388 153 100
273 200 407 341 181 189 287 341 408 586 86 175 144 337 184 515 42 193 51
282 51 520 -1 254 -14 368 -70 586 -176 685 -662 1260 -1317 1554 -169 76
-361 134 -588 177 -73 13 -534 26 -610 17z m260 -1555 c0 -455 -2 -519 -15
-519 -13 0 -15 64 -15 518 0 285 3 522 6 525 4 4 11 4 15 1 5 -3 9 -239 9
-525z m-283 188 c2 -3 4 -67 4 -143 0 -77 0 -203 -1 -281 l0 -143 -24 0 c-21
0 -24 5 -30 61 -23 200 -122 367 -251 424 -59 27 -218 51 -282 43 l-28 -3 -5
-330 -5 -330 -202 -3 -203 -2 0 324 c0 276 -2 325 -15 336 -27 22 -227 -1
-302 -35 -132 -59 -210 -188 -254 -417 -11 -61 -15 -68 -36 -68 l-23 0 0 284
c0 259 2 285 17 288 26 5 1635 0 1640 -5z m1536 3 c100 0 107 -1 107 -20 0
-18 -8 -20 -102 -22 l-103 -3 -5 -330 -5 -330 -202 -3 -203 -2 0 330 0 330
-22 5 c-13 3 -72 6 -133 8 -90 2 -110 5 -110 17 0 19 129 26 445 23 124 -1
273 -2 333 -3z m-2628 -949 c15 -39 31 -71 34 -71 3 0 17 26 29 58 33 80 37
87 53 87 11 0 15 -23 17 -102 2 -66 -1 -103 -8 -103 -6 0 -10 28 -10 70 0 39
-4 70 -8 70 -5 0 -22 -31 -37 -70 -15 -38 -31 -70 -35 -70 -6 0 -32 53 -51
108 -18 52 -29 37 -29 -38 0 -72 -19 -101 -21 -32 -3 111 0 155 12 163 19 11
23 7 54 -70z m485 6 c13 -34 30 -73 37 -87 23 -45 7 -74 -17 -30 -9 16 -21 20
-65 20 -45 0 -55 -3 -60 -20 -3 -11 -13 -20 -21 -20 -14 0 -14 3 41 140 35 88
50 87 85 -3z m387 4 c-27 -43 -37 -70 -37 -100 0 -30 -4 -41 -15 -41 -11 0
-15 11 -15 43 0 32 -9 55 -35 94 -39 58 -41 63 -22 63 7 0 23 -18 37 -40 14
-22 29 -40 35 -40 6 0 19 13 28 30 10 16 25 36 34 45 30 31 26 4 -10 -54z
m386 58 c56 -29 74 -102 40 -160 -30 -51 -111 -59 -153 -14 -45 48 -35 130 22
165 38 23 60 25 91 9z m392 -3 c30 -13 35 -20 35 -47 0 -20 -9 -42 -22 -56
l-22 -23 22 -30 c26 -34 27 -40 8 -40 -7 0 -25 18 -40 41 -34 51 -60 50 -64
-4 -2 -20 -7 -37 -13 -37 -10 0 -13 193 -2 203 11 12 62 8 98 -7z m614 3 c47
-16 37 -29 -17 -22 -41 4 -50 2 -56 -12 -9 -24 8 -41 46 -49 84 -17 95 -98 16
-115 -39 -9 -98 9 -98 30 0 7 7 8 18 4 40 -16 88 -17 101 -1 18 21 7 34 -53
60 -29 13 -56 31 -59 40 -8 21 6 51 31 65 22 13 32 13 71 0z m399 -6 c2 -9 -7
-13 -27 -13 l-31 0 0 -90 c0 -73 -3 -90 -15 -90 -12 0 -15 17 -15 90 l0 90
-30 0 c-29 0 -38 9 -23 24 12 12 136 2 141 -11z m-728 -94 c0 -76 -3 -100 -12
-97 -9 3 -14 32 -15 89 -2 91 1 109 17 109 6 0 10 -38 10 -101z m1068 36 c50
-128 52 -135 37 -135 -7 0 -17 9 -20 20 -5 17 -15 20 -59 20 -44 0 -56 -4 -69
-22 -32 -48 -28 -5 9 87 32 80 41 95 58 93 14 -2 27 -21 44 -63z m-3298 -58
c-1 -38 -51 -50 -58 -14 -6 28 16 49 39 36 10 -5 19 -15 19 -22z m3615 -7 c0
-31 -33 -40 -52 -14 -16 22 1 46 31 42 15 -2 21 -10 21 -28z m-2845 -510 l5
-285 120 -5 c98 -4 120 -8 120 -20 0 -13 -58 -15 -452 -18 -446 -2 -453 -2
-453 18 0 18 8 20 123 22 l122 3 3 275 c1 151 4 281 7 288 3 10 49 12 202 10
l198 -3 5 -285z m898 -310 c-2 -456 -6 -584 -15 -588 -10 -3 -13 119 -13 586
0 324 3 592 7 596 4 3 10 3 15 -2 4 -4 7 -271 6 -592z m1150 380 c3 -248 -6
-303 -67 -398 -160 -247 -519 -308 -709 -121 -49 48 -65 86 -66 154 -1 49 4
69 27 108 82 139 293 105 314 -51 10 -78 -23 -134 -103 -171 -56 -27 -58 -56
-4 -84 49 -25 168 -20 207 9 55 41 68 78 68 194 0 95 -3 113 -34 195 -32 84
-34 100 -39 238 l-4 147 203 -2 204 -3 3 -215z"/>
<path d="M2154 3135 c-21 -50 -18 -55 27 -55 35 0 40 3 34 18 -4 9 -12 29 -17
45 -13 36 -26 34 -44 -8z"/>
<path d="M2900 3170 c-13 -13 -20 -33 -20 -60 0 -71 67 -105 121 -61 29 24 31
91 4 121 -24 26 -79 26 -105 0z"/>
<path d="M3302 3153 c3 -41 19 -50 64 -39 21 6 25 12 22 39 -3 30 -6 32 -46
35 l-43 3 3 -38z"/>
<path d="M4672 3143 c-5 -16 -13 -36 -17 -45 -6 -15 -1 -18 34 -18 46 0 47 3
26 54 -18 43 -30 45 -43 9z"/>
</g>
</svg>
